# xmcd
#
# Track frame offsets:
#	150
#	12695
#	23572
#	33432
#	43462
#	56785
#	69497
#	81720
#	96070
#	107772
#	121482
#	133577
#	144685
#	156537
#	169412
#	181112
#	191217
#	204605
#	215685
#
# Disc length: 3032
#
# Revision: 1
# Processed by: cddbd v1.5.1PL0 Copyright (c) Steve Scherf et al.
# Submitted via: VisiTrax 2.9.2.167 - For more info visit www.synapsa.com
# Normalized: r0:DSETVAR1
#
DISCID=2d0bd613
DTITLE=Various Artist - Country Collection Disc 2
DYEAR=1900
DGENRE=
TTITLE0=Roy Orbison - I Can't Stop Loving You
TTITLE1=Pat Boone - Walking the Floor Over you
TTITLE2=Connie Francis - Anytime
TTITLE3=Connie Francis - I Walk the Line
TTITLE4=Frank Ifield - Riders in the Sky
TTITLE5=Tom Jones - Ring of Fire
TTITLE6=Tom Jones - Just out of Reach
TTITLE7=Roy Orbison - (I'd be) a Legend in My Time
TTITLE8=Lena Martell - Make the World Go Away
TTITLE9=Miki and Griff - You're My Best Friend
TTITLE10=Frank Ifield - Cold, Cold Heart
TTITLE11=Frankie Laine - Your Cheatin' Heart
TTITLE12=Pat Boone - I Almost Lost My Mind
TTITLE13=Roger Whittaker - Have I told yo lately that I love you?
TTITLE14=Lena Martell - Delta Dawn
TTITLE15=Peters and Lee - All I ever need is you
TTITLE16=Rosemary Squires - Don't It Make My Brown Eyes Blue
TTITLE17=Roger Whittaker - I Love You Because
TTITLE18=Rosemary Squires - Here You Come Again
EXTD=Data by Phil Taylor - Island of Jersey
EXTT0=
EXTT1=
EXTT2=
EXTT3=
EXTT4=
EXTT5=
EXTT6=
EXTT7=
EXTT8=
EXTT9=
EXTT10=
EXTT11=
EXTT12=
EXTT13=
EXTT14=
EXTT15=
EXTT16=
EXTT17=
EXTT18=
PLAYORDER=
